<svg xmlns="http://www.w3.org/2000/svg" width="16.477" height="18.719" viewBox="0 0 16.477 18.719">
  <g id="user" transform="translate(-30.9 0.1)">
    <g id="Group_90" data-name="Group 90" transform="translate(34.255)">
      <g id="Group_89" data-name="Group 89">
        <path id="Path_174" data-name="Path 174" d="M125.883,0a4.883,4.883,0,1,0,4.883,4.883A4.888,4.888,0,0,0,125.883,0Zm0,8.681a3.8,3.8,0,1,1,3.8-3.8A3.8,3.8,0,0,1,125.883,8.681Z" transform="translate(-121)" fill="#f26722" stroke="#ff511e" stroke-width="0.2"/>
      </g>
    </g>
    <g id="Group_92" data-name="Group 92" transform="translate(31 10.887)">
      <g id="Group_91" data-name="Group 91">
        <path id="Path_175" data-name="Path 175" d="M40.651,301H37.625A7.843,7.843,0,0,0,31,304.634v4H47.276v-4A7.844,7.844,0,0,0,40.651,301Zm5.54,6.547H32.085v-2.581a6.753,6.753,0,0,1,5.54-2.88h3.026a6.753,6.753,0,0,1,5.54,2.88v2.581Z" transform="translate(-31 -301)" fill="#f26722" stroke="#ff511e" stroke-width="0.2"/>
      </g>
    </g>
  </g>
</svg>
