<svg xmlns="http://www.w3.org/2000/svg" width="15.223" height="18.969" viewBox="0 0 15.223 18.969">
  <g id="Group_221" data-name="Group 221" transform="translate(-2381.9 55.869)">
    <g id="bag" transform="translate(2333.2 -55.769)">
      <path id="Path_173" data-name="Path 173" d="M63.819,16.224l-1.075-12.1a.517.517,0,0,0-.514-.472H60.019a3.708,3.708,0,0,0-7.415,0H50.393a.515.515,0,0,0-.514.472L48.8,16.224c0,.015,0,.031,0,.046a2.675,2.675,0,0,0,2.817,2.5h9.388a2.675,2.675,0,0,0,2.817-2.5A.187.187,0,0,0,63.819,16.224ZM56.311,1.036A2.674,2.674,0,0,1,58.983,3.65H53.64A2.674,2.674,0,0,1,56.311,1.036Zm4.694,16.7H51.617a1.654,1.654,0,0,1-1.781-1.439l1.029-11.6H52.6V6.264a.518.518,0,0,0,1.036,0V4.69h5.347V6.264a.518.518,0,0,0,1.036,0V4.69h1.735l1.032,11.6A1.656,1.656,0,0,1,61.006,17.733Z" fill="#f26722" stroke="#f26722" stroke-width="0.2"/>
    </g>
    <path id="Path_265" data-name="Path 265" d="M2383.469-51.375c.447.012,11.812,0,11.812,0l1.1,11.977s.136,1.928-2.388,1.821-10.526,0-10.526,0-1.345-1.859-.891-3.011S2383.469-51.375,2383.469-51.375Z" fill="#f26722"/>
  </g>
</svg>
