<svg xmlns="http://www.w3.org/2000/svg" width="32.067" height="37.559" viewBox="0 0 32.067 37.559">
  <path id="Path_79" data-name="Path 79" d="M-703.7-177.431c1.411-.01,3.374-2.608,4.65-4.919-.124,1-.159,1.758-.159,1.758-.077,2.712,1.147,4.18,1.857,4.464a1.887,1.887,0,0,0,2.176-.43c.647-.8.374-1.514-.183-1.667-.253-.071-.742.063-.845.716a.75.75,0,0,1-1.425.19c-1.1-1.694.5-6.925.775-7.807l.018-.038a1.694,1.694,0,0,0,.121-.682.609.609,0,0,0-.686-.595c-.429,0-.639.173-.893.735-1.592,4.065-4.01,6.641-4.521,6.649-.342,0-.429-.342-.433-.6-.017-2.478,3.2-6.767,5.24-7.55.385-.132.681-.344.681-.56a.4.4,0,0,0-.427-.383c-.857.006-2.983,1.307-4.38,2.768A9.164,9.164,0,0,0-705-179.426c.009.937.356,2,1.3,1.995m5.786,2.636a23.885,23.885,0,0,0-10.505-.087c-3.9.8-5.135,1.255-8.681,2.253,0,0-3.911,1.4-5.059.7-.75-.455-.578-1.277.062-1.439a.727.727,0,0,0,.638-.9c-.2-.543-.938-.749-1.679-.037a1.9,1.9,0,0,0-.331,2.195c.294.709,1.562,1.784,4.315,1.3,2.869-.509,3.77-1.027,8.857-2.3s6.5-1.68,10.24-1.217,5.374,1.777,5.666,3.626c0,0,.351,2.75-1.834,3.248a1.4,1.4,0,0,1-.966-.2,1.312,1.312,0,0,1-.616-1.171,1.231,1.231,0,0,1,.036-.269c.038-.7-.915-.531-1.287-.237a1.407,1.407,0,0,0-.359,1.587,2.673,2.673,0,0,0,2.873,1.379c1.581-.227,2.876-1.554,2.9-3.823S-695.017-174.043-697.916-174.795Zm-1.838-19.08.115.049Zm8.016-2.662c-.293-1.288-2.327-3.213-4.42-1.593a1.492,1.492,0,0,0-.571,1.7c.18.491.969,1.2,1.337.514a2.007,2.007,0,0,1,.117-.276,1.443,1.443,0,0,1,1.244-.75,1.271,1.271,0,0,1,.607.112l0,.01a1.443,1.443,0,0,1,.833,1.321c-.03.933-.711,2.618-4.375,2.456a9.338,9.338,0,0,1-3.443-1.151c-3.26-1.714-4.662-3.846-6.5-5.7a13.418,13.418,0,0,0-4.793-3.417c-4.139-1.421-7.517-.018-9.017,1.839a5.7,5.7,0,0,0-1.4,3.683l0,.018a1.185,1.185,0,0,0,1.262,1.1,1.184,1.184,0,0,0,1.077-1.279,1.183,1.183,0,0,0-1.172-1.1l0-.024a4.472,4.472,0,0,1,3.4-3.185c2.308-.578,5.453.331,8.111,2.824,1.346,1.266,2.537,2.348,3.668,3.271-1.062,2.826-4.737,12.606-5.542,14.547-.932,2.235-1.736,4.729-4.122,5.15-.44.077-2.843.131-3.166-2.1a1.633,1.633,0,0,1,.406-1.482,1.5,1.5,0,0,1,.954-.418,1.381,1.381,0,0,1,1.188.739c.472.611,1.705-.191,1.511-1.312a2.173,2.173,0,0,0-2.408-1.639,2.962,2.962,0,0,0-2.638,2.407,3.914,3.914,0,0,0,1.513,4.116,5.067,5.067,0,0,0,6.8-1.147s1.18-1.155,2.683-4.893c1.225-3.04,4.028-9.887,5.026-12.321A16.662,16.662,0,0,0-700.4-192.8a9.256,9.256,0,0,0,3.847.856h0a5.8,5.8,0,0,0,3.02-.7A3.278,3.278,0,0,0-691.738-196.537Zm-8.5,5.735c.274,0,.269-.3.077-.434a1.929,1.929,0,0,0-2.526.67,1.5,1.5,0,0,0,.052,2.179.88.88,0,0,0,1.3-.13c.457-.6-.2-1.165-.2-1.165-.245-.187-.016-.566.06-.664A1.083,1.083,0,0,1-700.241-190.8Z" transform="translate(723.664 203.89)" fill="#006578"/>
</svg>
