<svg id="Component_10_14" data-name="Component 10 – 14" xmlns="http://www.w3.org/2000/svg" width="44.787" height="45.219" viewBox="0 0 44.787 45.219">
  <path id="Path_8" data-name="Path 8" d="M-760.77,359.168c1.6-.006,1.565-1.742.45-2.525-1.561-1.092-8.375-3.64-14.691,3.9-4.032,4.842-2.777,10.273.3,12.673a5.121,5.121,0,0,0,7.532-.758c2.656-3.461-1.134-6.777-1.134-6.777-1.425-1.089-.092-3.293.349-3.86C-764.705,357.629-761.237,359.168-760.77,359.168Z" transform="translate(779.525 -333.601)" fill="#f26722"/>
  <path id="Path_9" data-name="Path 9" d="M-754.565,360.449c.476-1.523-1.188-2.019-2.271-1.192-1.513,1.158-6,6.884-.721,15.182,3.4,5.306,8.955,5.75,12.173,3.538a5.12,5.12,0,0,0,1.552-7.409c-2.5-3.577-6.8-.966-6.8-.966-1.468,1.029-3.166-.906-3.574-1.5C-757.22,363.736-754.706,360.895-754.565,360.449Z" transform="translate(777.486 -334.012)" fill="#f26722"/>
  <path id="Path_10" data-name="Path 10" d="M-751.733,355.482c-1.308-.914-2.283.523-1.822,1.806.647,1.792,4.75,7.8,14.255,5.272,6.085-1.637,8.185-6.8,7.048-10.535a5.119,5.119,0,0,0-6.593-3.718c-4.164,1.3-2.976,6.194-2.976,6.194.538,1.711-1.82,2.745-2.507,2.955C-749.4,359.006-751.351,355.752-751.733,355.482Z" transform="translate(776.742 -332.754)" fill="#f26722"/>
  <path id="Path_11" data-name="Path 11" d="M-755.154,350.353c-1.266.971-.191,2.334,1.171,2.282,1.9-.076,8.869-2.174,9.332-12,.277-6.295-4.011-9.857-7.914-9.9A5.121,5.121,0,0,0-758.1,335.9c-.019,4.363,5.007,4.707,5.007,4.707,1.793,0,2.067,2.565,2.059,3.283C-751.091,349.195-754.782,350.07-755.154,350.353Z" transform="translate(777.258 -330.735)" fill="#f26722"/>
  <path id="Path_12" data-name="Path 12" d="M-761.523,353.208c.544,1.5,2.168.887,2.529-.427.5-1.838.606-9.111-8.618-12.52-5.918-2.165-10.608.846-11.83,4.554a5.12,5.12,0,0,0,3.25,6.836c4.153,1.335,6-3.351,6-3.351.545-1.709,3.068-1.2,3.751-.972C-761.4,348.985-761.681,352.768-761.523,353.208Z" transform="translate(779.785 -331.76)" fill="#f26722"/>
</svg>
