<svg xmlns="http://www.w3.org/2000/svg" width="498.601" height="557.615" viewBox="0 0 498.601 557.615">
  <g id="Group_222" data-name="Group 222" transform="translate(-5013 -1054.911)">
    <g id="Group_63" data-name="Group 63" transform="translate(4638.693 846.073)">
      <g id="Group_61" data-name="Group 61" transform="translate(374.307 272.53)">
        <path id="Path_139" data-name="Path 139" d="M532.182,471.133c11.159-.078,26.686-20.627,36.78-38.909-.98,7.921-1.258,13.9-1.258,13.9-.609,21.452,9.074,33.058,14.69,35.3,10.829,4.359,17.208-3.4,17.208-3.4,5.118-6.321,2.959-11.972-1.444-13.182-2-.561-5.867.5-6.684,5.666-.815,5.139-7.509,7.306-11.27,1.5-8.727-13.4,3.915-54.772,6.127-61.746l.139-.3a13.389,13.389,0,0,0,.958-5.392c-.025-3.054-2.39-4.7-5.422-4.7-3.394.024-5.054,1.373-7.063,5.813-12.591,32.154-31.715,52.526-35.754,52.588-2.7,0-3.389-2.7-3.427-4.718-.139-19.6,25.3-53.519,41.44-59.714,3.046-1.048,5.39-2.723,5.39-4.433a3.133,3.133,0,0,0-3.38-3.031c-6.778.048-23.593,10.338-34.645,21.89-14.093,14.606-22.73,32.218-22.636,47.088.07,7.412,2.818,15.819,10.249,15.777m45.763,20.85c-23.689-6.1-53.127-6.83-83.087-.685-30.835,6.354-40.609,9.926-68.661,17.821,0,0-30.935,11.057-40.012,5.547-5.936-3.6-4.574-10.1.493-11.382,5.07-1.224,5.739-5.179,5.048-7.135-1.6-4.3-7.414-5.923-13.275-.293,0,0-7.2,6.2-2.618,17.36,2.324,5.607,12.356,14.106,34.126,10.247,22.689-4.027,29.819-8.125,70.05-18.169C520.24,495.272,531.385,492,561,495.67c29.588,3.652,42.5,14.053,44.815,28.678,0,0,2.775,21.749-14.5,25.691,0,0-4.462.8-7.642-1.551a10.383,10.383,0,0,1-4.873-9.262,9.747,9.747,0,0,1,.282-2.129c.3-5.539-7.236-4.2-10.179-1.877-2.182,1.716-4.91,5.986-2.837,12.548,2.09,6.572,12.2,12.453,22.723,10.911,12.506-1.8,22.749-12.293,22.945-30.239C611.921,510.455,600.873,497.929,577.945,491.983Zm-14.537-150.9.913.388Zm63.4-21.055c-2.319-10.188-18.4-25.409-34.956-12.6-5.981,4.642-5.553,10.58-4.519,13.457,1.426,3.884,7.664,9.47,10.57,4.063a15.831,15.831,0,0,1,.925-2.183,11.41,11.41,0,0,1,9.836-5.933,10.034,10.034,0,0,1,4.8.888l-.015.078c4.089,2.134,6.715,5.934,6.586,10.447-.237,7.376-5.626,20.7-34.6,19.42-5.666-.517-14.668-2.512-27.235-9.106C532.421,325,521.331,308.137,506.81,293.494c-9.379-9.476-22.455-21.669-37.908-27.026-32.736-11.241-59.453-.143-71.319,14.541-12.118,15.019-11.059,29.127-11.059,29.127l.017.143a9.276,9.276,0,1,0,9.224-10.128l.014-.19c1.611-11.064,13.376-21.812,26.887-25.194,18.257-4.572,43.128,2.614,64.151,22.336,10.642,10.016,20.065,18.575,29.012,25.873-8.4,22.353-37.465,99.7-43.836,115.051-7.368,17.679-13.725,37.4-32.6,40.732-3.477.607-22.49,1.038-25.038-16.579-.944-6.58,1.586-10.139,3.211-11.72a11.83,11.83,0,0,1,7.546-3.308c3.872-.049,7.308,2.277,9.4,5.846,3.736,4.835,13.485-1.508,11.948-10.379-1.35-7.826-8.674-13.175-19.046-12.962,0,0-16.612.709-20.862,19.04-4.362,19.028,7.217,27.9,11.968,32.553,4.3,4.247,32.235,16.251,53.79-9.072,0,0,9.336-9.136,21.222-38.7,9.692-24.046,31.859-78.195,39.751-97.448a131.95,131.95,0,0,0,25.028,13.58c8.284,3.281,15.249,6.438,30.43,6.767h.019c8.855.111,16.9-1.507,23.885-5.522C631.621,339.927,628.094,322.814,626.81,320.023Zm-67.247,45.358c2.171-.008,2.129-2.369.613-3.434-2.123-1.485-11.388-4.95-19.978,5.3-5.483,6.585-3.776,13.97.412,17.234,3.688,2.9,7.844,2.024,10.242-1.03,3.612-4.707-1.542-9.217-1.542-9.217-1.938-1.481-.126-4.478.475-5.249C554.213,363.289,558.929,365.381,559.563,365.381Z" transform="translate(-374.307 -261.866)" fill="#90855f"/>
        <path id="Path_140" data-name="Path 140" d="M603.762,467.267c.157-.842.455-1.3.825-1.3.4.024.7.246,1.358,1.527l13.42,27.75,13.379-28.09c.4-.788.633-1.187,1.08-1.187s.755.487.906,1.527L639.2,497.9c.441,3.111.949,4.526,2.424,4.963a9.6,9.6,0,0,0,3.019.524c.463-.008.809.03.8.33,0,.4-.572.545-1.276.545-1.23,0-8.016-.148-9.982-.294-1.141-.095-1.439-.251-1.425-.551,0-.226.188-.4.536-.554.3-.083.422-.71.249-2.1l-2.964-21.663h-.189l-10.732,22.337c-1.125,2.326-1.367,2.784-1.813,2.774s-.95-.979-1.723-2.463c-1.18-2.274-5.074-9.793-5.677-11.168-.415-1.03-3.392-7.246-5.115-10.932h-.191l-2.575,19.61c-.062.87-.131,1.511-.131,2.291,0,.936.634,1.376,1.474,1.564a9.9,9.9,0,0,0,2.063.273c.378,0,.744.072.741.357,0,.411-.435.527-1.173.527-2.075-.009-4.3-.156-5.166-.156-.946,0-3.306.156-4.886.156-.485,0-.885-.117-.878-.554-.007-.258.286-.339.785-.347a5.742,5.742,0,0,0,1.471-.137c1.4-.308,1.774-2.218,2.024-3.9l4.873-32.071" transform="translate(-329.929 -220.751)" fill="#90855f"/>
        <path id="Path_141" data-name="Path 141" d="M644.971,481.135c0-7.465,0-8.844-.088-10.42-.118-1.677-.613-2.5-1.688-2.745a6.454,6.454,0,0,0-1.761-.205c-.5,0-.792-.1-.792-.491,0-.3.389-.41,1.185-.393,1.866-.017,4.958.152,6.406.152,1.223,0,4.11-.152,5.983-.152.655,0,1.036.09,1.045.393-.01.376-.3.491-.789.491a7.314,7.314,0,0,0-1.483.149c-1.324.248-1.724,1.074-1.819,2.8-.1,1.576-.1,2.956-.093,10.42v8.674c-.008,4.776-.008,8.665.188,10.782.15,1.325.511,2.215,1.98,2.421.688.08,1.775.185,2.494.188.543.007.777.153.777.376.021.359-.365.515-.919.512-3.227,0-6.331-.153-7.672-.153-1.128,0-4.233.148-6.209.153-.633,0-.983-.153-.983-.512,0-.224.188-.369.793-.376a9.912,9.912,0,0,0,1.779-.188c.986-.206,1.271-1.037,1.415-2.47.25-2.068.25-5.957.25-10.733v-8.674" transform="translate(-320.656 -220.568)" fill="#90855f"/>
        <path id="Path_142" data-name="Path 142" d="M671.328,489.826c0,6.274,0,9.682,1.04,10.58.829.717,2.125,1.066,5.962,1.058,2.584,0,4.516-.038,5.731-1.382a5.993,5.993,0,0,0,1.3-2.95c.049-.434.143-.728.541-.735.33.007.393.251.393.834a38.478,38.478,0,0,1-.741,5.668c-.292,1.084-.536,1.342-3.09,1.324-3.553.012-6.107-.095-8.326-.139-2.2-.108-3.989-.165-6-.149-.538,0-1.636,0-2.811.048-1.144,0-2.406.1-3.4.1-.643,0-.989-.149-.989-.507,0-.223.215-.377.79-.369a9.493,9.493,0,0,0,1.782-.2c.967-.206,1.224-1.3,1.418-2.724.235-2.058.256-5.96.235-10.479v-8.674c0-7.453.02-8.844-.1-10.44-.1-1.657-.478-2.451-2.107-2.781a6.963,6.963,0,0,0-1.623-.149c-.538-.008-.842-.115-.83-.453s.343-.432,1.073-.432c2.309-.016,5.414.154,6.741.151,1.178,0,4.776-.167,6.69-.151.71,0,1.032.092,1.048.428,0,.357-.3.458-.884.458a11.44,11.44,0,0,0-1.924.156c-1.324.24-1.737,1.081-1.827,2.774-.1,1.6-.1,2.977-.09,10.44l-.006,8.69" transform="translate(-316.655 -220.568)" fill="#90855f"/>
        <path id="Path_143" data-name="Path 143" d="M695.476,491.411c-.239,0-.346.108-.441.4l-2.641,7.04a9.385,9.385,0,0,0-.751,3c0,.9.415,1.543,1.962,1.534h.741c.6.008.735.081.735.386,0,.391-.294.5-.834.5-1.57,0-3.682-.148-5.209-.148-.545,0-3.262.148-5.8.148-.646,0-.944-.1-.944-.507,0-.282.183-.369.589-.377a14.662,14.662,0,0,0,1.527-.107c2.259-.3,3.195-1.97,4.176-4.426l12.361-30.9c.6-1.427.882-1.979,1.372-1.967.452,0,.745.439,1.229,1.56,1.194,2.708,9.047,22.8,12.2,30.276,1.883,4.424,3.32,5.115,4.323,5.38a13.429,13.429,0,0,0,2.081.187c.376.008.637.039.637.377,0,.4-.442.507-2.242.507s-5.4,0-9.32-.1c-.887-.064-1.474-.047-1.474-.406,0-.3.193-.377.694-.435a.814.814,0,0,0,.437-1.151l-3.93-10.415a.477.477,0,0,0-.5-.346H695.476m10.057-2.441c.236.01.276-.151.236-.327L701.335,476.5c-.057-.19-.1-.437-.242-.449-.163,0-.245.245-.31.449l-4.5,12.11c-.068.189,0,.356.185.356Z" transform="translate(-312.266 -220.749)" fill="#90855f"/>
        <path id="Path_144" data-name="Path 144" d="M724.83,497.524c.109,3.834.747,5.111,1.737,5.45a7.517,7.517,0,0,0,2.555.366c.537.008.847.08.827.384,0,.392-.443.5-1.125.5-3.2,0-5.163-.149-6.108-.149-.438,0-2.754.149-5.3.157-.661-.008-1.086-.05-1.086-.515,0-.3.3-.377.791-.377a8.513,8.513,0,0,0,2.221-.264c1.262-.388,1.461-1.813,1.509-6.082l.44-29.133c0-.984.149-1.674.638-1.674.547,0,.995.637,1.825,1.513.6.637,8.066,8.664,15.25,15.809,3.366,3.346,10,10.427,10.819,11.233l.257-.017-.475-22.092c-.064-3.02-.49-3.954-1.688-4.431a8.193,8.193,0,0,0-2.612-.306c-.563-.008-.788-.149-.768-.445-.02-.384.526-.432,1.27-.432,2.553-.019,4.926.154,5.953.154.549,0,2.41-.173,4.819-.169.625.016,1.127.054,1.127.448.011.3-.3.445-.882.453a4.713,4.713,0,0,0-1.469.149c-1.381.391-1.784,1.418-1.826,4.168l-.546,31.06c0,1.082-.2,1.52-.627,1.52-.544,0-1.139-.532-1.687-1.077-3.095-2.962-9.4-9.407-14.508-14.47-5.366-5.322-10.84-11.47-11.708-12.4H724.3l.53,20.665" transform="translate(-305.41 -220.707)" fill="#90855f"/>
        <path id="Path_145" data-name="Path 145" d="M755.839,485.593c0-8.415,5.571-19.293,20.339-19.293,12.249,0,19.869,7.139,19.873,18.407s-7.865,20.176-20.364,20.176c-14.142,0-19.848-10.589-19.848-19.29m33.323.928c0-11.01-6.348-17.863-14.419-17.863-5.68,0-12.106,3.159-12.106,15.4,0,10.234,5.681,18.365,15.089,18.381C781.194,502.431,789.154,500.74,789.162,486.52Z" transform="translate(-297.451 -220.684)" fill="#90855f"/>
      </g>
      <g id="Group_62" data-name="Group 62" transform="translate(380.759 208.927)">
        <circle id="Ellipse_1" data-name="Ellipse 1" cx="9.618" cy="9.618" r="9.618" transform="translate(5.016 101.506)" fill="none" stroke="#bcbcbc" stroke-miterlimit="10" stroke-width="0.5"/>
        <circle id="Ellipse_2" data-name="Ellipse 2" cx="11.17" cy="11.17" r="11.17" transform="translate(217.338 118.672)" fill="none" stroke="#bcbcbc" stroke-miterlimit="10" stroke-width="0.5"/>
        <circle id="Ellipse_3" data-name="Ellipse 3" cx="14.879" cy="14.879" r="14.879" transform="translate(156.715 161.738)" fill="none" stroke="#bcbcbc" stroke-miterlimit="10" stroke-width="0.5"/>
        <circle id="Ellipse_4" data-name="Ellipse 4" cx="41.72" cy="41.72" r="41.72" transform="translate(11.627 74.624)" fill="none" stroke="#bcbcbc" stroke-miterlimit="10" stroke-width="0.5"/>
        <circle id="Ellipse_5" data-name="Ellipse 5" cx="50.522" cy="50.522" r="50.522" transform="translate(5.248 63.398)" fill="none" stroke="#bcbcbc" stroke-miterlimit="10" stroke-width="0.5"/>
        <circle id="Ellipse_6" data-name="Ellipse 6" cx="41.72" cy="41.72" r="41.72" transform="translate(166.932 66.904)" fill="none" stroke="#bcbcbc" stroke-miterlimit="10" stroke-width="0.5"/>
        <circle id="Ellipse_7" data-name="Ellipse 7" cx="50.325" cy="50.325" r="50.325" transform="translate(156.405 59.122)" fill="none" stroke="#bcbcbc" stroke-miterlimit="10" stroke-width="0.5"/>
        <circle id="Ellipse_8" data-name="Ellipse 8" cx="77.107" cy="77.107" r="77.107" transform="translate(140.82 185.368)" fill="none" stroke="#bcbcbc" stroke-miterlimit="10" stroke-width="0.5"/>
        <circle id="Ellipse_9" data-name="Ellipse 9" cx="29.443" cy="29.443" r="29.443" transform="translate(165.582 301.185)" fill="none" stroke="#bcbcbc" stroke-miterlimit="10" stroke-width="0.5"/>
        <circle id="Ellipse_10" data-name="Ellipse 10" cx="25.528" cy="25.528" r="25.528" transform="translate(28.536 230.396)" fill="none" stroke="#bcbcbc" stroke-miterlimit="10" stroke-width="0.5"/>
        <circle id="Ellipse_11" data-name="Ellipse 11" cx="134.809" cy="134.809" r="134.809" transform="translate(23.543 287.658)" fill="none" stroke="#bcbcbc" stroke-miterlimit="10" stroke-width="0.5"/>
        <circle id="Ellipse_12" data-name="Ellipse 12" cx="127.419" cy="127.419" r="127.419" transform="translate(30.933 295.048)" fill="none" stroke="#bcbcbc" stroke-miterlimit="10" stroke-width="0.5"/>
        <circle id="Ellipse_13" data-name="Ellipse 13" cx="7.752" cy="7.752" r="7.752" transform="translate(50.023 240.583)" fill="none" stroke="#bcbcbc" stroke-miterlimit="10" stroke-width="0.5"/>
        <circle id="Ellipse_14" data-name="Ellipse 14" cx="13.031" cy="13.031" r="13.031" transform="translate(32.908 248.782)" fill="none" stroke="#bcbcbc" stroke-miterlimit="10" stroke-width="0.5"/>
        <circle id="Ellipse_15" data-name="Ellipse 15" cx="21.651" cy="21.651" r="21.651" transform="translate(26.713 231.893)" fill="none" stroke="#bcbcbc" stroke-miterlimit="10" stroke-width="0.5"/>
        <circle id="Ellipse_16" data-name="Ellipse 16" cx="7.724" cy="7.724" r="7.724" transform="translate(143.925 257.545)" fill="none" stroke="#bcbcbc" stroke-miterlimit="10" stroke-width="0.5"/>
        <circle id="Ellipse_17" data-name="Ellipse 17" cx="7.724" cy="7.724" r="7.724" transform="translate(198.016 262.182)" fill="none" stroke="#bcbcbc" stroke-miterlimit="10" stroke-width="0.5"/>
        <circle id="Ellipse_18" data-name="Ellipse 18" cx="12.134" cy="12.134" r="12.134" transform="translate(198.686 326.29)" fill="none" stroke="#bcbcbc" stroke-miterlimit="10" stroke-width="0.5"/>
        <circle id="Ellipse_19" data-name="Ellipse 19" cx="6.396" cy="6.396" r="6.396" transform="translate(193.914 201.614)" fill="none" stroke="#bcbcbc" stroke-miterlimit="10" stroke-width="0.5"/>
        <circle id="Ellipse_20" data-name="Ellipse 20" cx="6.396" cy="6.396" r="6.396" transform="translate(158.607 175.063)" fill="none" stroke="#bcbcbc" stroke-miterlimit="10" stroke-width="0.5"/>
        <circle id="Ellipse_21" data-name="Ellipse 21" cx="9.038" cy="9.038" r="9.038" transform="translate(167.66 166.267)" fill="none" stroke="#bcbcbc" stroke-miterlimit="10" stroke-width="0.5"/>
        <circle id="Ellipse_22" data-name="Ellipse 22" cx="5.733" cy="5.733" r="5.733" transform="translate(210.522 266.036)" fill="none" stroke="#bcbcbc" stroke-miterlimit="10" stroke-width="0.5"/>
        <circle id="Ellipse_23" data-name="Ellipse 23" cx="5.733" cy="5.733" r="5.733" transform="translate(187.193 334.702)" fill="none" stroke="#bcbcbc" stroke-miterlimit="10" stroke-width="0.5"/>
        <circle id="Ellipse_24" data-name="Ellipse 24" cx="5.733" cy="5.733" r="5.733" transform="translate(1.486 304.988)" fill="none" stroke="#bcbcbc" stroke-miterlimit="10" stroke-width="0.5"/>
        <circle id="Ellipse_25" data-name="Ellipse 25" cx="5.733" cy="5.733" r="5.733" transform="translate(0 293.846)" fill="none" stroke="#bcbcbc" stroke-miterlimit="10" stroke-width="0.5"/>
        <circle id="Ellipse_26" data-name="Ellipse 26" cx="6.396" cy="6.396" r="6.396" transform="translate(207.264 115.546)" fill="none" stroke="#bcbcbc" stroke-miterlimit="10" stroke-width="0.5"/>
        <line id="Line_1" data-name="Line 1" y1="364.235" x2="138.824" transform="translate(43.464)" fill="none" stroke="#bcbcbc" stroke-miterlimit="10" stroke-width="0.5"/>
        <line id="Line_2" data-name="Line 2" y1="358.54" x2="152.933" transform="translate(59.222 2.848)" fill="none" stroke="#bcbcbc" stroke-miterlimit="10" stroke-width="0.5"/>
      </g>
    </g>
  </g>
</svg>
