<svg id="Group_1" data-name="Group 1" xmlns="http://www.w3.org/2000/svg" width="548.644" height="326.877" viewBox="0 0 548.644 326.877">
  <path id="Path_1" data-name="Path 1" d="M-549.943,26.381c12.28-.086,29.366-22.7,40.471-42.814-1.079,8.715-1.383,15.3-1.383,15.3-.672,23.6,9.984,36.376,16.163,38.846,11.915,4.8,18.935-3.743,18.935-3.743,5.632-6.954,3.257-13.173-1.589-14.5-2.2-.617-6.456.545-7.353,6.235-.9,5.653-8.264,8.038-12.4,1.654-9.6-14.741,4.31-60.271,6.742-67.943l.153-.331a14.738,14.738,0,0,0,1.054-5.935c-.028-3.359-2.629-5.174-5.966-5.174-3.735.025-5.562,1.51-7.772,6.4-13.854,35.381-34.9,57.8-39.342,57.866-2.973,0-3.729-2.975-3.771-5.192-.152-21.565,27.839-58.892,45.6-65.709,3.35-1.151,5.931-2.994,5.931-4.877a3.449,3.449,0,0,0-3.72-3.335c-7.458.052-25.961,11.376-38.121,24.087-15.509,16.072-25.011,35.452-24.91,51.813.077,8.157,3.1,17.408,11.278,17.362m50.357,22.942c-26.068-6.711-58.459-7.516-91.426-.754-33.931,6.992-44.686,10.921-75.554,19.61,0,0-34.038,12.165-44.027,6.1-6.531-3.963-5.032-11.117.542-12.526,5.579-1.346,6.317-5.7,5.557-7.852-1.76-4.725-8.16-6.516-14.609-.321,0,0-7.926,6.827-2.881,19.1,2.557,6.17,13.6,15.522,37.551,11.274,24.967-4.431,32.812-8.941,77.081-19.992,44.268-11.027,56.531-14.623,89.119-10.588,32.558,4.019,46.771,15.464,49.314,31.557,0,0,3.054,23.93-15.959,28.269,0,0-4.91.884-8.409-1.708a11.421,11.421,0,0,1-5.362-10.19,10.731,10.731,0,0,1,.311-2.343c.333-6.095-7.961-4.623-11.2-2.066-2.4,1.889-5.4,6.586-3.121,13.809,2.3,7.231,13.421,13.7,25,12.005,13.761-1.978,25.033-13.526,25.248-33.273C-462.2,69.65-474.356,55.866-499.586,49.323Zm-16-166.051,1,.427Zm69.766-23.169c-2.55-11.211-20.25-27.96-38.464-13.863-6.58,5.108-6.109,11.64-4.972,14.807,1.569,4.275,8.433,10.42,11.632,4.472a17.443,17.443,0,0,1,1.017-2.4,12.556,12.556,0,0,1,10.825-6.527,11.062,11.062,0,0,1,5.283.976l-.017.087c4.5,2.347,7.39,6.529,7.247,11.494-.26,8.117-6.191,22.781-38.076,21.371-6.235-.568-16.139-2.764-29.968-10.02-28.368-14.919-40.573-33.472-56.551-49.585-10.32-10.427-24.709-23.844-41.713-29.739-36.021-12.369-65.419-.159-78.475,16-13.335,16.527-12.171,32.049-12.171,32.049l.02.159a10.31,10.31,0,0,0,10.98,9.568,10.3,10.3,0,0,0,9.37-11.127,10.291,10.291,0,0,0-10.2-9.585l.016-.209c1.773-12.175,14.718-24,29.587-27.723,20.088-5.03,47.455,2.877,70.588,24.578,11.712,11.022,22.079,20.439,31.926,28.47-9.244,24.6-41.226,109.708-48.236,126.6-8.109,19.454-15.1,41.152-35.872,44.821-3.826.666-24.746,1.142-27.551-18.243-1.039-7.242,1.745-11.157,3.534-12.9a13.019,13.019,0,0,1,8.3-3.641c4.26-.053,8.042,2.505,10.342,6.434,4.11,5.32,14.839-1.659,13.146-11.422-1.486-8.612-9.544-14.5-20.958-14.262,0,0-18.279.78-22.954,20.951-4.8,20.938,7.94,30.7,13.167,35.819,4.732,4.675,35.47,17.883,59.189-9.983,0,0,10.273-10.051,23.352-42.584,10.665-26.459,35.056-86.044,43.742-107.23a145,145,0,0,0,27.539,14.943c9.117,3.612,16.779,7.086,33.484,7.447h.021c9.743.122,18.6-1.658,26.282-6.077C-440.523-117.994-444.4-136.826-445.818-139.9Zm-74,49.911c2.388-.009,2.343-2.607.673-3.778-2.336-1.634-12.532-5.447-21.983,5.833-6.034,7.246-4.155,15.373.453,18.962,4.059,3.186,8.632,2.229,11.27-1.133,3.975-5.178-1.7-10.141-1.7-10.141-2.132-1.63-.137-4.927.522-5.776C-525.7-92.287-520.512-89.985-519.813-89.985Z" transform="translate(723.664 203.89)" fill="#90855f"/>
  <path id="Path_2" data-name="Path 2" d="M-493.291,1.641c.173-.927.5-1.43.91-1.43.445.026.767.271,1.494,1.68l14.767,30.534L-461.4,1.517c.442-.867.7-1.306,1.189-1.306.508,0,.83.534,1,1.68l4.913,33.463c.485,3.423,1.046,4.979,2.668,5.461a10.612,10.612,0,0,0,3.324.576c.508-.011.888.032.88.362,0,.439-.629.6-1.4.6-1.354,0-8.819-.163-10.983-.324-1.255-.1-1.584-.278-1.568-.608,0-.247.208-.444.59-.608.329-.091.464-.781.274-2.311l-3.261-23.836h-.207L-475.8,39.248c-1.236,2.559-1.5,3.062-1.995,3.053s-1.046-1.077-1.895-2.71c-1.3-2.5-5.584-10.776-6.247-12.29-.457-1.133-3.733-7.974-5.629-12.029h-.21l-2.833,21.578c-.069.957-.144,1.662-.144,2.52,0,1.031.7,1.515,1.623,1.723a11.065,11.065,0,0,0,2.269.3c.418,0,.818.079.816.393,0,.452-.479.58-1.289.58-2.283-.009-4.733-.172-5.686-.172-1.04,0-3.638.172-5.375.172-.534,0-.976-.128-.966-.611-.009-.283.315-.373.862-.381a6.442,6.442,0,0,0,1.618-.151c1.536-.338,1.952-2.44,2.228-4.291l5.362-35.29" transform="translate(794.607 269.616)" fill="#90855f"/>
  <path id="Path_3" data-name="Path 3" d="M-452.564,16.809c0-8.212,0-9.731-.1-11.465-.128-1.847-.674-2.755-1.857-3.021a7.1,7.1,0,0,0-1.938-.226c-.547,0-.871-.111-.871-.541,0-.333.428-.451,1.3-.434,2.053-.017,5.456.169,7.049.169,1.346,0,4.523-.169,6.584-.169.721,0,1.14.1,1.152.434-.012.414-.329.541-.87.541a8.047,8.047,0,0,0-1.631.164c-1.456.272-1.9,1.181-2,3.083-.111,1.733-.111,3.252-.1,11.465v9.546c-.009,5.255-.009,9.533.206,11.863.167,1.46.563,2.439,2.179,2.665.759.089,1.953.2,2.745.208.6.008.855.167.855.412.022.4-.4.568-1.01.563-3.552,0-6.967-.167-8.444-.167-1.241,0-4.658.163-6.832.167-.7.005-1.081-.167-1.081-.563,0-.246.208-.4.873-.412a10.89,10.89,0,0,0,1.958-.208c1.087-.226,1.4-1.141,1.559-2.718.275-2.277.275-6.555.275-11.81V16.809" transform="translate(809.431 269.91)" fill="#90855f"/>
  <path id="Path_4" data-name="Path 4" d="M-425.557,26.374c0,6.9,0,10.653,1.146,11.642.911.789,2.339,1.173,6.559,1.165,2.845,0,4.971-.042,6.307-1.522a6.609,6.609,0,0,0,1.425-3.246c.053-.476.157-.8.594-.809.364.009.432.278.432.919a42.336,42.336,0,0,1-.816,6.237c-.321,1.192-.59,1.477-3.4,1.457-3.908.013-6.719-.1-9.162-.153-2.425-.12-4.389-.181-6.6-.164-.592,0-1.8,0-3.092.053-1.26,0-2.649.111-3.74.111-.707,0-1.088-.164-1.088-.559,0-.246.237-.414.871-.4a10.432,10.432,0,0,0,1.959-.215c1.064-.226,1.349-1.43,1.561-3,.259-2.266.28-6.56.259-11.532V16.81c0-8.2.021-9.731-.107-11.487-.106-1.823-.525-2.7-2.319-3.06a7.568,7.568,0,0,0-1.786-.165c-.592-.008-.927-.127-.914-.5s.379-.476,1.182-.476c2.54-.019,5.956.169,7.417.167,1.3,0,5.256-.185,7.362-.167.78,0,1.134.1,1.151.471,0,.393-.332.5-.973.5a12.47,12.47,0,0,0-2.117.173c-1.456.263-1.91,1.19-2.011,3.053-.106,1.756-.106,3.275-.1,11.487l-.007,9.564" transform="translate(815.828 269.91)" fill="#90855f"/>
  <path id="Path_5" data-name="Path 5" d="M-401.17,28.208c-.264,0-.382.119-.485.436l-2.907,7.747a10.32,10.32,0,0,0-.826,3.3c0,.992.456,1.7,2.159,1.69h.816c.665.009.809.089.809.424,0,.43-.324.549-.918.549-1.727,0-4.052-.163-5.732-.163-.6,0-3.589.163-6.384.163-.711,0-1.04-.111-1.04-.558,0-.311.2-.406.648-.415a16.484,16.484,0,0,0,1.68-.118c2.486-.325,3.517-2.168,4.6-4.87l13.6-34.005c.665-1.571.972-2.177,1.51-2.165.5,0,.821.484,1.352,1.716,1.314,2.981,9.955,25.089,13.429,33.315,2.073,4.869,3.653,5.629,4.757,5.921a15.1,15.1,0,0,0,2.29.206c.414.009.7.042.7.415,0,.439-.486.558-2.467.558s-5.936,0-10.255-.111c-.974-.07-1.622-.052-1.622-.447,0-.327.213-.415.764-.48a.894.894,0,0,0,.481-1.265l-4.324-11.461a.524.524,0,0,0-.553-.381H-401.17m11.065-2.688c.259.012.3-.165.259-.358L-394.724,11.8c-.062-.208-.108-.48-.266-.493-.18,0-.271.27-.342.493l-4.952,13.327c-.075.206,0,.39.2.39Z" transform="translate(822.843 269.62)" fill="#90855f"/>
  <path id="Path_6" data-name="Path 6" d="M-372.286,34.913c.119,4.219.822,5.624,1.91,6a8.276,8.276,0,0,0,2.813.4c.59.009.931.089.908.423,0,.43-.488.55-1.236.55-3.523,0-5.682-.164-6.721-.164-.484,0-3.03.164-5.834.173-.728-.009-1.2-.056-1.2-.568,0-.325.328-.414.868-.414a9.368,9.368,0,0,0,2.444-.291c1.388-.427,1.608-1.995,1.66-6.692l.484-32.057c0-1.083.164-1.842.7-1.842.6,0,1.1.7,2.009,1.663.657.7,8.875,9.533,16.781,17.4,3.7,3.682,11,11.474,11.9,12.36l.283-.017-.522-24.309c-.07-3.324-.538-4.351-1.857-4.876a8.937,8.937,0,0,0-2.873-.337c-.62-.009-.869-.164-.845-.489-.024-.424.578-.476,1.4-.476,2.811-.021,5.422.169,6.551.169.6,0,2.652-.19,5.3-.188.689.019,1.24.061,1.24.494.012.325-.331.489-.97.5a5.183,5.183,0,0,0-1.616.165c-1.519.43-1.963,1.559-2.011,4.586l-.6,34.177c0,1.191-.225,1.672-.69,1.672-.6,0-1.255-.586-1.856-1.185-3.406-3.259-10.344-10.351-15.965-15.922-5.906-5.857-11.929-12.621-12.885-13.639h-.165l.583,22.739" transform="translate(833.804 269.688)" fill="#90855f"/>
  <path id="Path_7" data-name="Path 7" d="M-342.132,21.773c0-9.259,6.13-21.229,22.381-21.229,13.478,0,21.864,7.855,21.868,20.253S-306.538,43-320.292,43c-15.56,0-21.84-11.651-21.84-21.225m36.668,1.019c0-12.114-6.986-19.655-15.866-19.655-6.251,0-13.319,3.476-13.319,16.948,0,11.261,6.251,20.209,16.6,20.224C-314.232,40.3-305.474,38.441-305.464,22.792Z" transform="translate(846.527 269.724)" fill="#90855f"/>
</svg>
