<svg xmlns="http://www.w3.org/2000/svg" width="16.792" height="15.196" viewBox="0 0 16.792 15.196">
  <g id="Group_220" data-name="Group 220" transform="translate(-2328 27)">
    <g id="heart-regular" transform="translate(2328 -27)">
      <path id="heart-regular-2" data-name="heart-regular" d="M15.034,33.074a4.823,4.823,0,0,0-6.638.509,4.82,4.82,0,0,0-6.638-.509,5.25,5.25,0,0,0-.348,7.5l5.753,6.06a1.683,1.683,0,0,0,2.466,0l5.753-6.06A5.254,5.254,0,0,0,15.034,33.074Zm-.774,6.358-5.753,6.06a.132.132,0,0,1-.223,0l-5.753-6.06a3.578,3.578,0,0,1,.239-5.11,3.247,3.247,0,0,1,4.477.356L8.4,35.889l1.148-1.211a3.244,3.244,0,0,1,4.477-.359A3.594,3.594,0,0,1,14.26,39.432Z" transform="translate(0 -31.978)" fill="#f26722"/>
    </g>
    <path id="Path_264" data-name="Path 264" d="M2336.4-12.675c.323-.171,7.339-8.153,7.339-8.153s1.327-5.223-3.248-5.423-4.091,2.995-4.091,2.995-1.735-4.4-5.291-2.086-1.927,6.449,0,7.814A54.556,54.556,0,0,1,2336.4-12.675Z" fill="#f26722"/>
  </g>
</svg>
